<?xml version="1.0" encoding="UTF-8" standalone="no"?>
<!-- Created with Inkscape (http://www.inkscape.org/) -->

<svg
   version="1.1"
   id="svg1"
   width="346"
   height="346"
   viewBox="0 0 346 346"
   sodipodi:docname="icon.svg"
   inkscape:export-filename="icon16.png"
   inkscape:export-xdpi="4.4393063"
   inkscape:export-ydpi="4.4393063"
   inkscape:version="1.4.2 (ebf0e940, 2025-05-08)"
   xmlns:inkscape="http://www.inkscape.org/namespaces/inkscape"
   xmlns:sodipodi="http://sodipodi.sourceforge.net/DTD/sodipodi-0.dtd"
   xmlns="http://www.w3.org/2000/svg"
   xmlns:svg="http://www.w3.org/2000/svg">
  <defs
     id="defs1" />
  <sodipodi:namedview
     id="namedview1"
     pagecolor="#ffffff"
     bordercolor="#000000"
     borderopacity="0.25"
     inkscape:showpageshadow="2"
     inkscape:pageopacity="0.0"
     inkscape:pagecheckerboard="true"
     inkscape:deskcolor="#d1d1d1"
     inkscape:zoom="2.3352601"
     inkscape:cx="172.78589"
     inkscape:cy="173"
     inkscape:window-width="1920"
     inkscape:window-height="1027"
     inkscape:window-x="0"
     inkscape:window-y="25"
     inkscape:window-maximized="1"
     inkscape:current-layer="svg1" />
  <g
     id="g7"
     transform="translate(2.3333282,2.3333282)">
    <g
       inkscape:label="Image"
       id="g1">
      <circle
         style="fill:#e6e6e6;fill-opacity:1"
         id="circle_bg"
         cx="170.66667"
         cy="170.66667"
         r="173" />
      <path
         style="fill:#000000"
         d="m 143.45966,318.65175 c -25.78819,-16.08861 -36.3434,-41.79916 -30.75058,-74.90275 0.99078,-5.86441 3.14965,-7.91057 4.18183,-3.96351 3.11803,11.92338 15.43815,27.27501 24.08595,30.01258 50.41684,15.96008 51.89193,18.16909 24.1829,36.21478 -5.02054,3.26967 -7.82642,8.8336 -7.82642,15.51946 0,5.1321 -1.54426,4.81147 -13.87368,-2.88056 z m 36.54035,-41.87341 c -36.58462,-8.05733 -58.9645,-28.07562 -60.92818,-54.49885 -1.8994,-25.55834 11.19358,-35.25519 21.0809,-15.61282 8.99054,17.86081 26.26727,29.75607 50.15611,34.53314 21.4802,4.29541 27.71603,12.02909 20.55123,25.48767 -5.64359,10.60109 -14.85989,13.61471 -30.86006,10.09086 z m 9.9896,-41.13626 c -47.60841,-21.95402 -65.30209,-57.79858 -40.42988,-81.90446 14.02453,-13.59241 29.069,-14.86828 29.13622,-2.47095 0.0963,17.76047 35.08731,54.06667 52.10808,54.06667 10.59303,0 3.87757,26.04543 -8.4865,32.9143 -6.13902,3.41054 -22.06532,2.12691 -32.32792,-2.60556 z m 101.54744,-30.30874 c -2.50566,-2.2 -5.21049,-4 -6.01073,-4 -0.80023,0 -4.02103,-1.15933 -7.15731,-2.57628 -9.46108,-4.27447 -10.47032,-4.4563 -26.45523,-4.76633 -16.67989,-0.32352 -18.77886,-0.96839 -27.24711,-8.37125 -12.75511,-11.15039 -27.9896,-40.01362 -27.94937,-52.95281 0.0543,-17.4526 16.50213,-28.20715 31.46503,-20.57365 6.72003,3.4283 5.81924,4.85406 9.79846,-15.509013 5.0106,-25.641008 5.12209,-25.777157 16.41956,-20.052295 6.31169,3.198377 6.31169,3.198377 10.03003,0 7.40137,-6.366389 12.64473,-1.254026 6.26189,6.105448 -3.0186,3.480472 -9.49926,3.16025 -17.99051,-0.888946 -5.87427,-2.801245 -5.25613,-3.702859 -10.00764,14.597121 -5.03226,19.381275 -5.02012,19.914355 0.55026,24.163085 5.93913,4.52999 2.99233,5.98428 29.39808,-14.50842 27.4743,-21.321965 24.31949,-20.707039 33.55388,-6.540229 7.46986,11.459769 7.46986,11.459769 13.30343,10.584969 6.74754,-1.01185 8.17714,2.27836 3.16691,7.2886 -4.97249,4.97248 -10.64879,1.19766 -19.46195,-12.94247 -7.33458,-11.767852 -4.19755,-12.194754 -24.07175,3.2758 -9.18523,7.15 -17.78374,13.62343 -19.10782,14.38539 -6.82219,3.92595 -7.08099,4.74738 -2.88558,9.15872 6.68004,7.02386 14.7396,21.72088 17.44502,31.81191 5.50212,20.5225 14.6768,35.6044 21.67314,35.62763 6.9211,0.023 10.57237,4.8604 6.3023,8.34969 -3.94681,3.22513 -5.76457,2.95028 -11.02299,-1.66667 z M 251.02264,153 c -1.01306,-18.05255 -11.268,-31.66666 -23.85317,-31.66666 -9.8609,0 -15.21301,8.96528 -9.76776,16.3619 1.4962,2.03237 2.35749,4.28237 1.91398,5 -0.44352,0.71762 0.0162,1.30476 1.02155,1.30476 1.00537,0 3.15514,1.79514 4.77728,3.98919 4.01576,5.43162 16.21759,11.58404 23.59321,11.89621 2.43923,0.10324 2.66877,-0.57952 2.31491,-6.8854 z m -129.6893,0.21595 C 113.4145,148.82198 111.6203,147.83418 62.666669,120.91677 22.223068,98.678648 17.866298,93.250151 26.647614,76.03735 29.89696,69.668106 43.204267,65.749031 56.476328,65.035555 c 12.112348,-0.651133 24.19534,1.367597 28.577145,6.630391 3.77601,4.535199 48.160727,62.900304 56.018717,73.663604 8.69385,11.9082 -3.62242,16.829 -19.73885,7.8864 z m 31.65937,-40.11908 C 119.08777,52.050639 114.30475,30.803547 132.29937,21.173117 c 5.06572,-2.711088 4.78273,-3.461916 27.19734,72.160219 12.86096,43.390124 10.53821,50.448204 -6.504,19.763534 z"
         id="path1"
         sodipodi:nodetypes="ssssssssssssssssssssssssssssssssssssssssssssssssssssssssssssssss" />
      <path
         style="fill:#4d4d4d;fill-opacity:1;stroke-width:0.58019"
         d="m 130.41197,156.6287 c -1.66748,-0.44912 -4.66997,-1.64145 -6.67219,-2.64964 C 116.39689,150.28167 51.649593,114.41664 45.075025,110.40483 30.217577,101.33879 24.396639,95.787879 23.28316,89.623873 c -0.822249,-4.551814 3.280835,-14.405787 7.093269,-17.035207 6.188208,-4.267983 15.13172,-6.595581 27.352496,-7.118636 9.606613,-0.411167 17.063236,0.688214 22.441594,3.308719 3.478577,1.69487 3.947022,2.217561 15.720486,17.540826 25.971335,33.801925 45.594915,59.990595 46.614265,62.209115 1.8964,4.12735 1.20612,6.77899 -2.12731,8.17178 -2.4409,1.01987 -6.00832,0.99418 -9.96599,-0.0718 z"
         id="path2" />
      <path
         style="fill:#666666;fill-opacity:1;stroke-width:0.58019"
         d="m 164.10518,129.53533 c -2.49677,-2.65297 -5.755,-7.66082 -10.48035,-16.10815 -20.12277,-35.972643 -29.81448,-58.497663 -31.22649,-72.575106 -0.50033,-4.988213 0.80631,-10.202451 3.45977,-13.806463 2.10674,-2.861437 7.90249,-6.785378 9.25537,-6.266231 2.04438,0.784504 5.31341,10.000076 15.06229,42.461352 13.44751,44.776788 16.60347,56.717588 16.79897,63.560098 0.0713,2.49532 -0.12515,4.28806 -0.48376,4.41472 -0.33209,0.1173 -1.4057,-0.6388 -2.3858,-1.68022 z"
         id="path3" />
      <path
         style="fill:#666666;fill-opacity:1;stroke-width:0.58019"
         d="M 128.88977,155.73526 C 125.03441,154.40911 114.9276,149.00153 77.745487,128.3709 47.913916,111.81873 40.972288,107.73749 34.667991,103.04405 23.409053,94.661949 21.435277,89.373165 25.928221,79.625599 c 4.235083,-9.18813 13.202888,-12.947833 32.380894,-13.575513 14.453146,-0.473039 21.399814,1.366238 26.555369,7.031095 6.048245,6.64573 55.051736,71.382839 57.198836,75.563749 0.52446,1.02124 0.95356,2.7874 0.95356,3.92481 0,1.7105 -0.32596,2.26675 -1.88561,3.21769 -2.49254,1.51972 -7.73671,1.49738 -12.2415,-0.0522 z"
         id="path4" />
      <path
         style="fill:#666666;fill-opacity:1;stroke-width:0.58019"
         d="M 163.90016,128.70951 C 159.90734,124.16194 152.14126,110.716 141.50168,89.929481 122.6654,53.129116 118.69569,36.232017 126.69166,26.890533 c 2.10802,-2.462758 6.66901,-5.713591 8.01628,-5.713591 1.1605,0 3.42546,5.005468 6.58203,14.546033 3.46691,10.478546 14.78569,48.147075 19.68777,65.520215 4.92378,17.45006 6.88809,28.2852 5.3052,29.26348 -0.28696,0.17735 -1.35921,-0.63137 -2.38278,-1.79716 z"
         id="path5" />
      <path
         style="fill:#e6e6e6;fill-opacity:1;stroke-width:0.58019"
         d="m 244.10314,158.67326 c -6.82216,-1.78751 -13.06896,-5.39685 -18.28711,-10.56614 -2.50397,-2.48053 -4.92648,-4.51005 -5.38336,-4.51005 -0.51278,0 -0.83068,-0.59116 -0.83068,-1.54473 0,-0.8496 -0.81636,-2.81691 -1.81414,-4.37181 -3.61787,-5.63797 -2.53832,-11.06531 2.8285,-14.22004 2.32841,-1.36868 3.38808,-1.61631 6.81821,-1.59328 3.47593,0.0233 4.59105,0.31054 7.73636,1.99249 8.73737,4.67229 14.38599,15.32507 15.51695,29.26352 0.2951,3.63686 0.20767,5.19405 -0.32783,5.83929 -0.89875,1.08293 -1.04581,1.07613 -6.2569,-0.28925 z"
         id="path6" />
    </g>
  </g>
  <path
     style="fill:#ffd54f;fill-opacity:1;stroke-width:0.316832"
     d="M 60.001603,303.77972 C 55.232985,299.71709 46.142907,290.58851 41.811248,285.51234 25.381657,266.25887 13.412342,243.84304 6.4986338,219.37976 3.9848827,210.48517 2.0109659,199.91882 0.90652572,189.44526 0.20137381,182.75821 0.10254178,164.44791 0.7373306,158.09901 3.0167639,135.30105 8.5801261,115.62872 18.249268,96.175918 c 1.867023,-3.75616 4.590066,-8.825423 6.051205,-11.265027 4.517769,-7.543132 5.496042,-8.670419 3.13125,-3.608212 -1.800498,3.854245 -2.331809,6.204708 -2.183651,9.660249 0.177511,4.140163 1.270491,6.260001 5.301782,10.282822 6.667996,6.65399 11.670936,9.67806 60.539255,36.59349 36.233411,19.95644 35.924021,19.79271 39.920791,21.1266 2.74755,0.91697 3.36892,1.00582 7.12871,1.01934 3.94961,0.0142 4.18057,-0.0215 5.622,-0.86879 0.82675,-0.48598 1.74647,-1.34143 2.04381,-1.90099 0.77797,-1.46406 0.67504,-4.11572 -0.24242,-6.2451 -0.91346,-2.1201 -10.16673,-14.53849 -40.01551,-53.702973 C 86.665261,72.493323 86.59052,72.404356 83.195935,70.663205 75.282493,66.604242 58.213918,65.972616 44.820676,69.243127 c -6.346236,1.549694 -10.852815,3.611875 -13.687329,6.263227 -0.830272,0.776624 -1.509585,1.303078 -1.509585,1.169901 0,-0.457071 4.82669,-7.115891 8.352941,-11.523574 C 53.916588,45.228417 73.258589,29.640475 96.175918,18.249268 131.02402,0.9277919 169.93471,-4.0800928 208.31683,3.8165038 c 24.37648,5.0151268 48.68915,16.0529292 68.81305,31.2406972 12.54503,9.467894 24.91675,21.896222 34.17259,34.328938 12.66787,17.01586 21.95941,35.665471 27.70274,55.603961 16.20236,56.24772 3.15279,116.15094 -35.02765,160.79208 -4.03604,4.719 -13.21068,13.90535 -17.97232,17.99527 l -3.57891,3.07404 H 226.31691 170.2075 l 3.86329,-2.68624 c 8.62763,-5.999 11.43416,-8.9947 11.43416,-12.20485 0,-1.63736 -0.57608,-2.75632 -2.15209,-4.18015 -3.6785,-3.32331 -11.07641,-6.40501 -30.99133,-12.90988 -9.05851,-2.9588 -11.1526,-3.75698 -12.94439,-4.93383 -7.92736,-5.20671 -16.54594,-16.89894 -19.65377,-26.66292 -1.20724,-3.79281 -2.26875,-4.29058 -3.56854,-1.67339 -2.21686,4.46377 -3.38093,21.58319 -2.12523,31.25483 1.56114,12.02409 6.19439,23.35135 13.031,31.85781 l 1.71879,2.13862 H 96.213278 63.607167 Z M 199.59487,280.07558 c 6.87065,-1.45539 12.48404,-6.80785 15.40795,-14.69176 0.84471,-2.27765 1.0179,-3.20419 1.0445,-5.58814 0.0293,-2.62455 -0.0532,-3.0307 -1.01096,-4.97647 -1.28095,-2.60242 -3.63236,-4.7953 -7.01392,-6.54104 -4.09915,-2.1162 -7.46166,-3.14529 -18.24026,-5.58242 -14.568,-3.29393 -27.1162,-9.77212 -36.01606,-18.59379 -4.46493,-4.42571 -7.3886,-8.38708 -10.75496,-14.57228 -3.38521,-6.21981 -5.59633,-8.85781 -8.59436,-10.25359 -5.64543,-2.62831 -10.38814,1.61089 -12.52636,11.19651 -0.43045,1.92967 -0.54103,3.95838 -0.53009,9.72542 0.0119,6.28618 0.10936,7.72685 0.70944,10.48841 1.01121,4.65354 2.08418,7.71586 4.20685,12.00664 8.20272,16.58106 26.46328,29.14117 51.61699,35.50359 9.10882,2.304 16.62315,2.9546 21.70124,1.87892 z m 22.99523,-38.46874 c 4.56323,-1.54779 9.01862,-6.13228 12.18446,-12.53753 2.38302,-4.82141 3.36176,-8.31722 3.55949,-12.71359 0.27555,-6.12698 -1.08002,-8.42617 -5.20498,-8.8282 -6.40498,-0.62425 -13.26246,-4.03578 -21.96075,-10.92525 -4.25317,-3.36872 -13.31312,-12.45296 -16.91335,-16.95871 -6.05039,-7.57213 -10.78408,-15.73151 -12.19637,-21.02268 -0.35569,-1.33258 -0.78436,-3.79764 -0.95261,-5.47793 -0.42506,-4.24513 -1.38524,-5.96481 -4.15549,-7.44252 -0.89008,-0.47479 -1.76541,-0.58718 -4.43565,-0.56954 -2.87589,0.019 -3.67495,0.15026 -5.89626,0.96859 -9.4568,3.48387 -19.8676,13.29578 -23.58696,22.23009 -3.09673,7.43866 -3.30011,15.76419 -0.58328,23.87652 4.20857,12.56659 14.79514,24.75279 30.71476,35.35575 4.55686,3.03501 8.7096,5.40323 14.98217,8.54404 9.85969,4.93695 16.36441,6.47386 26.6666,6.30071 4.89575,-0.0823 5.99671,-0.19548 7.77822,-0.79975 z m 80.79342,-31.02372 c 2.03191,-1.3012 3.10715,-2.50171 3.33672,-3.72546 0.60773,-3.23945 -1.8156,-5.22622 -7.31074,-5.99373 -2.53025,-0.35339 -3.2569,-0.5956 -4.73974,-1.57986 -5.76559,-3.82698 -12.15926,-15.75638 -16.80941,-31.36328 -2.22093,-7.4539 -3.6744,-11.21272 -6.45416,-16.69112 -3.52046,-6.9382 -7.56604,-13.06783 -11.72992,-17.77252 -1.19924,-1.355 -2.35573,-2.88683 -2.56998,-3.40407 -0.55231,-1.3334 0.13989,-2.25111 3.06738,-4.06672 3.96418,-2.45856 11.89469,-8.40564 28.08363,-21.05988 6.68175,-5.22286 8.76019,-6.54293 10.30865,-6.54727 1.44501,-0.0041 2.2844,0.96083 5.59863,6.4356 3.7805,6.24498 6.56074,10.09131 9.34037,12.92194 5.20941,5.305 9.23688,5.44938 12.99935,0.46602 1.69074,-2.23933 2.03577,-4.16456 0.93092,-5.19391 -0.99219,-0.92435 -2.90877,-1.1362 -6.29608,-0.69596 -2.72282,0.35389 -2.96571,0.33663 -4.29076,-0.30482 -1.72933,-0.83715 -3.53387,-3.14566 -8.42689,-10.78036 -4.67874,-7.300328 -5.5624,-8.436731 -7.16289,-9.211514 -1.6949,-0.820486 -3.02341,-0.618253 -5.81306,0.884885 -2.80837,1.513233 -4.49729,2.763717 -19.80198,14.661469 -25.26187,19.63841 -24.57391,19.23719 -28.24566,16.47283 -2.85529,-2.14968 -4.91068,-4.17019 -5.38389,-5.29254 -1.03203,-2.44775 -0.39332,-6.2526 3.67013,-21.863449 3.16832,-12.171948 3.88198,-14.027916 5.39409,-14.027916 0.44165,0 2.39294,0.709465 4.33621,1.576589 4.66391,2.081132 7.87579,2.950229 11.04101,2.987568 3.36111,0.03965 5.08187,-0.629706 6.94443,-2.701323 2.6614,-2.960123 3.37598,-6.579789 1.60305,-8.12026 -1.75171,-1.522034 -4.73692,-0.664456 -8.97054,2.577027 -3.11667,2.386287 -3.44197,2.371377 -9.15718,-0.419748 -7.39976,-3.613805 -8.76123,-3.835504 -10.7306,-1.747362 -1.79388,1.902064 -2.67326,5.139473 -6.13664,22.591912 -2.66124,13.410262 -3.2729,15.740312 -4.30921,16.415342 -0.5881,0.38308 -1.00301,0.25952 -3.92209,-1.16798 -7.03414,-3.43985 -12.68584,-3.94925 -18.70736,-1.68612 -6.48311,2.4366 -11.64893,8.48301 -13.49326,15.79337 -0.89648,3.55338 -0.77402,8.69989 0.30787,12.93865 3.01193,11.80045 11.49217,28.13685 20.25623,39.02174 4.41581,5.4844 10.48183,10.80654 14.63213,12.83779 3.70711,1.81434 6.01549,2.17621 16.15841,2.53307 12.77274,0.44939 18.04627,0.84084 20.75248,1.54043 1.30693,0.33786 4.89198,1.68843 7.96678,3.00126 3.0748,1.31284 6.41292,2.60173 7.41805,2.86421 1.96964,0.51434 3.44215,1.44679 7.02784,4.45032 4.30486,3.60594 6.55145,4.19739 9.28768,2.44515 z M 169.89327,133.22386 c 0.52642,-1.49802 0.24916,-4.76849 -0.89949,-10.61 -1.72792,-8.7875 -3.51074,-15.28166 -12.52492,-45.623761 C 144.30842,36.05753 140.9431,26.000968 138.52423,23.366337 c -0.89229,-0.971889 -2.44554,-0.921148 -4.28959,0.14013 -7.77256,4.473196 -10.67145,10.463488 -9.83734,20.327928 1.04701,12.38227 8.88836,31.41371 25.80119,62.621055 9.57314,17.66425 14.41909,25.31087 17.32253,27.33394 1.33471,0.93 1.89353,0.79679 2.37225,-0.56553 z"
     id="path7" />
  <path
     style="fill:#ffd54f;fill-opacity:1;stroke-width:0.316832"
     d="m 161.26733,345.46703 c -15.75719,-1.09676 -33.36912,-4.8437 -47.52953,-10.11194 -16.577597,-6.16754 -31.018706,-14.05567 -45.143741,-24.65878 l -4.910891,-3.68641 32.441467,-0.0807 32.441465,-0.0807 3.99418,3.88728 c 4.60933,4.48597 8.62417,7.59431 14.62091,11.3197 6.15668,3.82474 8.86133,5.16743 10.47942,5.20237 1.71907,0.0371 2.16744,-0.70562 2.1818,-3.61427 0.0319,-6.44903 3.03953,-12.03538 8.33862,-15.48788 l 2.00446,-1.30596 56.04641,0.0801 56.04642,0.0801 -4.42629,3.34414 c -5.62201,4.24754 -8.54803,6.27843 -13.29757,9.22961 -24.46042,15.19872 -51.88143,24.02624 -80.46984,25.90529 -5.77899,0.37984 -17.20285,0.36887 -22.81729,-0.0219 z"
     id="path8" />
</svg>
